<?xml version="1.0" standalone="no"?>
<!DOCTYPE svg PUBLIC "-//W3C//DTD SVG 20010904//EN"
 "http://www.w3.org/TR/2001/REC-SVG-20010904/DTD/svg10.dtd">
<svg version="1.0" xmlns="http://www.w3.org/2000/svg"
 width="7730.000000pt" height="7730.000000pt" viewBox="0 0 7730.000000 7730.000000"
 preserveAspectRatio="xMidYMid meet">

<g transform="translate(0.000000,7730.000000) scale(0.100000,-0.100000)"
fill="#000000" stroke="none">
<path d="M27245 66873 c-718 -41 -1212 -211 -1545 -529 -199 -191 -318 -411
-376 -694 -11 -57 -18 -144 -20 -265 -2 -178 -2 -179 -26 -186 -94 -28 -453
-145 -518 -170 l-80 -31 38 -46 c51 -61 114 -155 142 -212 12 -25 24 -47 25
-48 2 -2 93 34 203 81 109 47 291 119 403 160 172 64 269 96 534 178 l30 9 1
182 c1 149 5 203 23 288 75 356 260 676 521 906 129 114 373 263 407 249 8 -2
12 -1 9 4 -9 14 20 21 33 8 9 -9 11 -7 5 8 -4 11 -4 17 1 13 4 -4 16 -1 27 6
11 8 29 11 40 8 14 -3 19 -1 14 6 -5 8 -2 10 8 6 9 -3 14 -9 11 -13 -2 -4 3
-8 11 -8 10 0 14 7 11 18 -6 21 16 28 78 24 34 -2 43 0 36 9 -7 9 -3 12 14 12
14 0 25 -4 25 -8 0 -4 12 -9 28 -9 23 -2 24 -2 5 -6 l-23 -4 0 -2080 c0 -1976
1 -2080 18 -2077 9 2 15 11 14 19 -10 37 -10 49 -4 50 4 0 15 2 25 4 17 3 17
2 1 -23 -15 -23 -15 -25 -1 -14 9 8 21 11 28 7 8 -5 9 0 5 16 -6 20 -5 21 4 7
6 -9 17 -15 25 -12 8 4 13 9 11 13 -2 3 11 6 30 7 18 0 31 -2 29 -6 -7 -12 23
-33 35 -25 6 4 18 -1 26 -11 9 -11 13 -13 9 -6 -3 6 -1 12 5 12 6 0 8 6 4 13
-4 7 -3 9 2 4 5 -5 9 -13 9 -18 0 -5 3 -9 8 -9 4 0 55 0 113 0 97 0 106 2 99
18 -5 14 -4 15 6 5 9 -9 51 -13 135 -13 137 0 217 -13 449 -72 581 -148 1189
-435 1640 -776 520 -393 919 -828 1253 -1367 112 -181 319 -595 397 -794 323
-823 442 -1712 350 -2608 -15 -147 -74 -518 -99 -623 l-13 -55 -119 2 c-65 1
-2203 77 -4751 169 -2548 92 -4635 165 -4638 162 -8 -8 12 -314 31 -478 19
-169 59 -406 96 -569 41 -184 104 -413 116 -420 6 -3 1974 -71 4374 -149 2399
-79 4364 -145 4366 -147 4 -4 -106 -204 -180 -328 -626 -1045 -1553 -1864
-2643 -2335 -652 -282 -1347 -427 -2070 -433 l-150 -1 140 -24 c168 -29 386
-54 472 -56 35 0 61 -4 58 -7 -2 -4 67 -6 153 -4 86 2 151 -1 144 -5 -18 -12
-13 -4088 6 -4085 6 2 12 -2 12 -7 0 -7 7 -8 18 -3 21 10 43 10 59 0 6 -4 14
-3 18 3 3 5 12 10 18 10 7 0 3 -7 -7 -15 -20 -15 -17 -18 25 -18 9 0 16 -6 16
-13 0 -10 -4 -11 -12 -4 -9 7 -14 6 -18 -4 -9 -22 -49 -8 -42 14 3 10 1 21 -5
25 -5 3 -10 1 -10 -5 0 -6 -4 -9 -9 -6 -5 3 -14 -1 -21 -9 -16 -19 -30 -19
-30 -1 0 13 -19 22 -64 32 -11 3 -17 2 -14 -2 3 -3 12 -6 20 -8 15 -2 56 -25
46 -26 -13 0 -153 52 -165 62 -7 6 -13 15 -13 20 0 7 5 6 13 -1 8 -6 18 -7 22
-3 5 4 5 2 2 -4 -4 -7 0 -14 8 -17 11 -5 12 -1 5 19 -13 33 -12 37 2 28 7 -4
8 -3 4 5 -9 14 -26 5 -26 -15 0 -8 -5 -12 -11 -9 -6 4 -8 14 -5 24 5 12 2 11
-9 -3 -21 -28 -56 -31 -62 -7 -3 11 -12 22 -20 26 -13 5 -14 3 -3 -10 12 -14
11 -15 -13 -4 -15 7 -24 16 -20 22 4 6 1 7 -6 3 -7 -5 -17 -1 -24 9 -7 9 -19
17 -28 18 -8 2 -28 13 -45 26 -16 12 -23 19 -15 15 9 -4 12 -3 7 4 -4 6 -13 9
-20 6 -34 -13 -345 327 -332 363 3 7 0 12 -6 10 -16 -3 -109 184 -142 285 -48
143 -67 253 -73 420 l-6 157 -51 6 c-348 44 -651 99 -937 171 -97 24 -180 44
-185 44 -5 0 -16 -18 -25 -39 l-17 -39 42 -6 c221 -32 320 -45 367 -51 l56 -6
6 -162 c14 -419 148 -744 410 -995 216 -206 504 -333 889 -394 109 -17 196
-21 480 -25 367 -6 474 1 626 38 572 138 1032 620 1162 1218 27 123 43 311 35
411 l-7 86 129 38 c70 21 210 67 311 102 l183 63 64 -63 c95 -94 187 -160 315
-225 129 -66 231 -101 370 -130 52 -11 145 -32 205 -45 206 -47 327 -58 626
-57 319 1 434 15 608 76 246 86 434 207 621 401 447 463 576 1188 311 1749
-27 56 -67 130 -90 164 l-42 62 108 115 c228 243 439 485 578 666 l60 78 85 0
c47 0 111 4 142 9 47 8 65 6 109 -10 188 -72 451 -97 664 -65 207 32 434 123
620 249 119 81 322 284 403 404 126 186 218 408 264 634 18 93 22 147 23 289
0 189 -10 262 -57 430 -37 134 -138 339 -222 450 l-64 85 57 2 c31 2 7015
-226 15521 -506 13187 -434 15471 -512 15509 -525 98 -36 182 -123 216 -225
13 -42 15 -1579 13 -15581 l-3 -15535 -22 -48 c-33 -71 -113 -150 -185 -182
l-62 -28 -699 -34 c-384 -19 -700 -33 -702 -31 -3 3 -397 4407 -630 7043 -68
781 -131 1456 -140 1500 -42 230 -229 420 -450 456 -56 9 -948 -6 -4300 -70
-2326 -44 -4509 -85 -4850 -91 -678 -11 -828 -16 -948 -31 -235 -29 -406 -101
-535 -223 -84 -79 -136 -174 -151 -271 -9 -63 48 -792 268 -3430 27 -324 52
-630 56 -680 7 -94 166 -2025 309 -3750 47 -555 84 -1010 83 -1011 -1 0 -6592
-323 -14647 -718 -8055 -394 -14671 -719 -14702 -722 l-57 -6 -513 -462 c-995
-896 -3160 -2847 -3692 -3326 -428 -387 -533 -485 -514 -487 13 -2 2968 170
6568 381 3600 211 6546 383 6547 382 1 -1 -180 -935 -403 -2076 l-405 -2075
-6 -165 c-11 -309 53 -587 204 -883 142 -278 365 -553 623 -769 213 -178 402
-286 760 -433 129 -53 309 -127 400 -165 91 -37 215 -88 275 -113 61 -25 943
-386 1960 -804 1018 -418 1915 -783 1995 -812 649 -235 1434 -355 2110 -322
118 6 2394 206 5057 446 5267 473 4900 435 5023 510 109 66 205 182 251 304
11 31 32 117 45 193 13 75 35 166 49 203 13 37 32 103 41 148 52 258 -78 542
-304 660 -37 19 -159 67 -272 105 -113 39 -338 116 -500 172 -162 56 -798 274
-1412 486 -1219 419 -1217 418 -1380 500 -231 116 -429 258 -627 449 -394 382
-650 860 -765 1428 -20 95 -184 937 -366 1872 -182 935 -337 1731 -344 1770
-8 38 -14 71 -13 71 8 7 9311 543 9317 537 4 -4 28 -267 53 -583 248 -3062
619 -7494 632 -7540 65 -241 285 -418 587 -475 209 -38 79 -49 4428 353 2208
204 4435 410 4949 457 748 69 946 90 995 106 205 69 356 283 356 505 0 34 -96
1141 -214 2461 -118 1319 -274 3067 -347 3885 -73 818 -130 1490 -126 1494 4
4 258 22 565 40 423 25 582 38 660 54 444 90 827 353 1085 745 122 186 211
400 265 640 l27 120 3 16690 c2 12496 0 16718 -8 16800 -32 299 -160 625 -338
860 -269 354 -627 576 -1052 650 -63 12 -1574 70 -5865 226 -3179 117 -5874
215 -5990 219 -115 3 -1760 64 -3655 133 -1895 70 -3578 132 -3740 137 -162 5
-470 16 -685 25 -214 8 -518 19 -675 24 -157 5 -1333 48 -2615 95 -1281 47
-2445 88 -2585 91 -140 3 -280 7 -310 10 -30 2 -138 7 -240 10 -102 3 -228 8
-280 10 -52 2 -185 7 -295 11 -110 3 -220 8 -245 9 -25 2 -151 6 -280 10 -129
4 -255 8 -280 10 -25 2 -146 6 -270 10 -575 18 -3401 122 -3404 126 -2 2 0 29
5 59 18 106 8 96 111 104 691 51 1263 585 1405 1311 25 127 24 435 0 560 -72
356 -255 657 -526 861 -256 193 -604 290 -913 255 -53 -6 -103 -8 -111 -5 -9
3 -21 38 -32 87 -58 277 -164 658 -262 940 -30 87 -53 160 -51 161 1 2 46 32
98 67 329 223 573 592 660 999 28 128 38 401 21 534 -27 202 -99 403 -204 571
-113 181 -409 520 -567 649 -468 383 -984 425 -1578 130 -81 -40 -172 -87
-203 -105 l-56 -32 -124 113 c-68 62 -186 164 -261 227 -76 63 -138 119 -138
123 0 5 16 36 35 69 45 76 115 252 143 356 76 286 69 623 -19 885 -91 273
-257 509 -478 676 -136 103 -466 257 -736 344 -550 175 -1004 168 -1378 -21
-290 -147 -534 -408 -732 -782 -37 -69 -62 -106 -70 -103 -7 2 -102 17 -211
31 -110 15 -208 29 -219 31 -19 3 -20 12 -21 131 -2 215 -47 408 -138 599
-163 340 -419 572 -778 703 -138 51 -300 79 -282 49 4 -6 -3 -4 -17 5 -26 19
-79 23 -79 7 0 -5 4 -10 9 -10 5 0 7 -9 4 -20 -6 -22 -20 -25 -43 -10 -9 6
-17 5 -22 -3 -5 -8 -8 -6 -8 6 0 9 5 17 11 17 5 0 7 5 3 11 -4 8 0 7 15 -1 12
-6 19 -16 15 -23 -5 -9 -4 -9 6 0 11 10 11 15 0 28 -10 12 -38 15 -159 13 -80
-1 -168 -3 -196 -5z m196 -12 c-8 -5 -11 -15 -9 -23 4 -10 -2 -14 -17 -14 -13
0 -21 4 -19 8 5 7 -27 13 -49 9 -5 -1 -6 3 -2 9 8 13 57 9 67 -5 4 -6 8 -2 8
8 0 10 7 17 18 17 14 0 14 -2 3 -9z m58 -7 c-5 -6 -6 -13 -3 -16 3 -3 1 -9 -5
-13 -10 -6 -16 8 -12 28 1 5 -3 6 -9 2 -5 -3 -10 -13 -10 -22 0 -9 -3 -14 -6
-10 -14 14 8 45 30 43 16 -1 21 -5 15 -12z m48 10 c-3 -3 -12 -4 -19 -1 -8 3
-5 6 6 6 11 1 17 -2 13 -5z m258 -26 c5 4 5 1 1 -6 -6 -10 -11 -10 -22 -1 -8
6 -14 14 -14 16 0 3 6 0 13 -6 8 -6 18 -7 22 -3z m-215 -4110 c0 -4 -6 -8 -14
-8 -8 0 -17 4 -20 8 -2 4 4 8 15 8 10 0 19 -4 19 -8z m-30 -10938 c-8 -5 -22
-9 -30 -9 -10 0 -8 3 5 9 27 12 43 12 25 0z m45 -8 c-3 -3 -11 0 -18 7 -9 10
-8 11 6 5 10 -3 15 -9 12 -12z m-208 2 c-3 -3 -12 -4 -19 -1 -8 3 -5 6 6 6 11
1 17 -2 13 -5z m31781 -21165 c65 -32 102 -94 102 -174 0 -48 -5 -70 -23 -96
-75 -111 -228 -107 -307 9 -34 49 -36 166 -4 209 55 74 144 94 232 52z m4624
-610 c172 -36 335 -186 389 -359 16 -52 44 -328 139 -1400 66 -734 286 -3205
490 -5490 204 -2285 431 -4832 505 -5660 74 -828 224 -2515 335 -3750 110
-1235 200 -2273 200 -2306 0 -225 -174 -445 -383 -485 -29 -5 -446 -46 -927
-89 -8769 -799 -8461 -772 -8540 -761 -196 28 -367 182 -424 381 -10 36 -70
711 -176 1990 -88 1064 -265 3211 -394 4770 -130 1559 -305 3683 -391 4720
-85 1037 -157 1908 -160 1935 -2 28 -7 84 -10 125 -10 129 -240 2905 -356
4285 -61 726 -110 1358 -110 1405 -1 230 143 417 364 474 46 12 298 20 1250
42 655 15 2695 61 4532 104 3738 87 3594 84 3667 69z"/>
<path d="M27105 66783 c3 -3 0 -11 -5 -18 -7 -8 -5 -12 4 -12 14 0 16 22 3 32
-4 3 -5 2 -2 -2z"/>
<path d="M26950 66678 c-3 -589 2 -4063 5 -4069 4 -5 14 -8 23 -8 15 1 15 2 0
6 -20 5 -23 18 -8 28 8 5 8 11 1 19 -8 9 -11 641 -11 2019 0 1104 -2 2007 -5
2007 -3 0 -5 -1 -5 -2z"/>
<path d="M22825 65519 c-329 -27 -663 -189 -920 -444 -126 -126 -217 -254
-300 -420 -73 -146 -113 -261 -146 -415 -31 -142 -34 -456 -6 -595 39 -189
127 -407 213 -528 l35 -48 -140 -147 c-263 -278 -609 -691 -596 -712 3 -5 28
-10 54 -10 148 0 420 -86 568 -180 12 -8 24 -12 26 -10 2 3 34 46 72 95 187
244 419 515 625 730 l140 145 -44 67 c-93 145 -156 299 -198 484 -20 91 -23
130 -23 314 1 231 15 325 76 510 132 395 431 744 793 925 125 62 267 113 349
125 26 4 50 11 52 16 3 4 -37 22 -90 38 -169 55 -355 75 -540 60z"/>
<path d="M27448 62704 c-16 -8 -28 -12 -28 -8 0 4 -7 1 -15 -6 -8 -7 -15 -16
-15 -21 0 -15 19 -10 40 11 12 12 25 18 30 15 5 -3 11 -1 15 5 3 5 13 10 21
10 8 0 13 -4 10 -9 -3 -5 1 -11 9 -15 16 -6 16 14 0 26 -15 11 -37 9 -67 -8z"/>
<path d="M27444 62678 c-3 -4 4 -8 15 -8 12 0 21 4 21 8 0 5 -7 9 -15 9 -9 0
-18 -4 -21 -9z"/>
<path d="M26995 62638 c3 -12 10 -26 16 -32 8 -8 8 -5 0 12 -13 24 -3 30 17
10 7 -7 12 -9 12 -6 0 10 -30 38 -40 38 -5 0 -7 -10 -5 -22z"/>
<path d="M27112 62655 c4 -5 3 -14 -3 -21 -8 -9 -5 -11 11 -7 23 6 22 24 -1
31 -8 3 -11 1 -7 -3z"/>
<path d="M27195 62649 c-4 -6 -14 -8 -24 -4 -12 5 -13 3 -5 -5 9 -9 17 -9 32
-1 11 6 27 8 35 5 8 -3 18 -1 22 5 4 7 -5 11 -24 11 -16 0 -33 -5 -36 -11z"/>
<path d="M27063 62643 c4 -3 1 -13 -6 -22 -10 -14 -10 -14 4 -4 9 7 20 9 25 5
4 -4 2 1 -5 11 -7 9 -16 17 -19 17 -3 0 -2 -3 1 -7z"/>
<path d="M19940 62276 c-499 -90 -906 -402 -1136 -871 -104 -213 -152 -404
-161 -640 -14 -364 77 -672 282 -951 125 -170 338 -338 518 -410 31 -12 45
-24 42 -32 -17 -44 -91 -316 -134 -489 -46 -188 -114 -513 -141 -679 l-11 -71
-97 -6 c-595 -34 -1137 -473 -1342 -1086 l-39 -116 -58 -3 c-32 -1 -1239 41
-2683 93 -2619 96 -3175 111 -3430 93 -467 -33 -907 -215 -1240 -513 -329
-294 -540 -698 -590 -1130 -6 -60 -10 -1386 -10 -3982 l0 -3893 -39 0 c-56 0
-187 -26 -267 -54 -542 -184 -878 -775 -763 -1339 64 -314 252 -569 519 -703
41 -21 76 -38 78 -39 1 -1 -16 -66 -39 -145 -54 -189 -103 -398 -139 -599 -17
-91 -31 -166 -33 -167 -1 -1 -45 -7 -98 -13 -256 -29 -476 -136 -665 -325
-242 -242 -369 -569 -350 -902 30 -538 417 -941 931 -970 55 -3 127 -1 160 3
l60 9 -37 17 c-65 28 -172 102 -241 167 -157 147 -260 336 -309 565 -18 90
-16 333 5 431 78 367 304 670 622 831 130 66 306 113 425 113 l48 0 7 43 c33
209 111 552 176 776 17 57 29 104 27 106 -2 1 -24 12 -50 23 -133 58 -300 200
-388 331 -184 273 -230 636 -124 972 106 335 377 625 691 739 141 51 213 63
368 64 173 0 278 -23 419 -93 l97 -47 67 85 c158 204 302 371 453 526 l98 100
-44 70 c-97 153 -145 317 -152 525 -6 165 8 264 58 416 119 364 423 660 774
755 44 12 87 24 95 26 8 3 -16 16 -54 29 -72 25 -138 38 -244 49 l-62 7 2
2666 3 2667 32 67 c58 122 172 207 310 229 54 8 679 -10 3063 -89 l2995 -99
82 -56 c145 -99 313 -169 491 -204 94 -18 365 -25 435 -10 l39 8 -77 39 c-321
165 -576 477 -678 830 -48 165 -60 273 -54 483 6 211 24 315 87 492 153 430
496 790 907 951 129 51 280 85 406 93 l111 6 38 210 c49 271 123 587 196 842
l58 202 -94 46 c-134 64 -232 135 -347 250 -193 192 -313 416 -378 703 -19 84
-22 126 -21 317 0 242 11 319 74 508 139 414 452 770 835 947 85 40 243 93
310 105 61 11 62 16 9 37 -128 50 -242 70 -429 74 -121 2 -204 -1 -255 -10z"/>
<path d="M19270 55125 c0 -30 69 -324 121 -515 28 -102 85 -290 128 -418 l78
-233 -66 -43 c-340 -220 -597 -589 -689 -991 -80 -346 -43 -709 103 -1010 61
-126 117 -207 210 -304 134 -141 277 -240 490 -342 189 -90 424 -159 660 -195
139 -21 512 -25 555 -6 21 9 15 11 -45 11 -295 3 -624 149 -855 381 -498 497
-546 1308 -117 1945 84 123 294 332 413 409 l90 58 -73 217 c-86 256 -165 538
-223 792 -23 101 -43 185 -44 187 -2 1 -34 -2 -72 -8 -193 -28 -482 6 -646 75
-13 5 -18 2 -18 -10z"/>
<path d="M26358 51883 c7 -3 16 -2 19 1 4 3 -2 6 -13 5 -11 0 -14 -3 -6 -6z"/>
<path d="M26950 49858 c-3 -1060 -2 -1924 3 -1919 4 4 6 871 5 1927 l-3 1919
-5 -1927z"/>
<path d="M21800 51406 c-26 -32 -195 -139 -296 -188 l-107 -52 59 -54 c171
-155 313 -278 398 -347 53 -43 96 -78 96 -80 0 -1 -22 -44 -49 -96 -160 -304
-219 -624 -176 -952 39 -297 184 -602 384 -806 190 -194 448 -331 711 -377
101 -17 318 -23 409 -10 l53 8 -90 48 c-129 68 -214 131 -323 240 -196 195
-322 439 -381 733 -29 146 -31 401 -4 552 26 142 97 351 161 473 31 57 54 105
53 106 -2 1 -69 57 -149 123 -195 162 -359 314 -561 522 -92 94 -169 171 -172
171 -2 0 -9 -6 -16 -14z"/>
<path d="M14810 50949 c-339 -29 -652 -126 -863 -266 -288 -191 -448 -508
-436 -862 3 -76 1 -85 -16 -92 -11 -4 -99 -33 -195 -64 -96 -31 -190 -63 -208
-71 l-33 -13 47 -63 c25 -35 57 -85 71 -113 14 -27 26 -51 28 -53 1 -1 58 22
126 51 173 76 418 167 588 220 l144 45 2 133 c4 246 69 451 208 659 70 105
214 245 325 318 113 74 127 79 155 55 22 -18 22 -18 4 4 -12 14 -15 23 -8 28
6 3 11 4 11 0 0 -3 22 6 49 19 l48 25 11 -22 c9 -18 11 -19 11 -4 1 9 7 17 15
17 8 0 17 7 20 15 3 9 11 15 18 14 7 -1 21 1 31 6 11 4 23 3 30 -4 6 -6 16
-11 22 -11 5 0 3 5 -5 10 -17 11 -13 12 48 15 25 1 38 -1 31 -6 -7 -4 -17 -5
-21 -3 -4 3 -8 0 -8 -6 0 -8 9 -10 26 -6 21 6 23 4 13 -7 -16 -17 -54 -15 -54
3 0 7 -5 15 -12 17 -8 3 -11 -3 -8 -16 2 -12 -1 -18 -8 -15 -9 3 -11 -351 -9
-1521 2 -1345 4 -1525 17 -1525 8 0 15 9 15 20 0 19 16 21 90 10 3 0 -2 -5
-10 -10 -13 -8 -13 -10 1 -10 9 0 19 7 23 15 6 17 42 20 51 5 7 -11 78 -14 88
-4 3 3 70 5 148 5 107 -2 170 -8 258 -26 720 -152 1393 -551 1885 -1117 492
-568 789 -1244 898 -2048 30 -223 33 -744 5 -970 -99 -795 -386 -1510 -862
-2145 -183 -244 -486 -559 -709 -738 -729 -582 -1577 -894 -2450 -901 -170 -1
-176 -2 -115 -13 79 -14 309 -44 368 -48 24 -1 48 -9 53 -16 7 -11 11 -11 15
-1 6 15 33 16 33 2 0 -7 7 -8 18 -3 9 4 62 5 117 2 55 -3 92 -6 83 -7 -17 -2
-18 -80 -18 -1481 0 -1606 -4 -1501 53 -1505 24 -1 33 -32 11 -40 -6 -2 -11 3
-10 12 0 10 -7 17 -17 17 -10 0 -22 7 -27 15 -8 13 -10 13 -10 -2 0 -9 6 -18
13 -21 6 -2 9 -8 5 -12 -4 -4 -18 4 -32 18 -17 17 -26 21 -26 12 0 -11 -6 -12
-22 -6 -13 5 -22 13 -21 18 1 5 -8 9 -20 8 -28 -3 -47 4 -47 17 0 5 4 7 8 4 4
-2 9 4 9 15 1 12 -5 19 -15 19 -15 1 -15 2 2 15 18 13 18 14 -2 12 -11 0 -18
-5 -16 -9 8 -12 -10 -10 -23 3 -13 13 -33 4 -33 -14 0 -8 3 -8 9 1 7 12 12 12
29 1 25 -16 35 -36 22 -44 -6 -4 -10 -1 -10 4 0 6 -3 10 -7 9 -16 -4 -73 33
-73 47 0 18 -40 56 -52 49 -4 -3 -6 -10 -2 -15 3 -5 9 -7 14 -4 9 5 36 -23 28
-30 -7 -7 -128 96 -180 154 -105 117 -189 274 -228 426 -24 92 -44 275 -36
319 l6 33 -132 17 c-185 24 -375 60 -567 106 -90 22 -167 40 -171 40 -8 0 -33
-51 -27 -56 1 -2 78 -14 170 -26 l167 -23 0 -75 c0 -95 24 -254 51 -345 64
-214 177 -380 340 -500 143 -105 366 -191 589 -225 159 -24 560 -21 739 5 78
11 204 56 298 105 390 204 633 609 633 1055 l0 112 103 32 c56 18 158 52 227
75 l125 44 76 -72 c142 -133 274 -194 549 -254 224 -49 333 -62 527 -62 176 0
299 14 408 45 596 173 961 835 789 1433 -28 97 -79 211 -124 279 -17 24 -30
46 -30 49 0 3 58 67 129 142 110 116 210 231 386 445 30 36 30 37 138 46 96 8
115 7 164 -10 202 -69 456 -65 664 11 301 110 547 349 674 654 192 465 74 987
-290 1276 -35 28 -104 72 -153 98 l-89 47 44 150 c48 168 123 495 150 657 l17
107 56 6 c119 12 197 27 269 51 372 125 655 436 758 833 31 119 42 327 23 452
-57 396 -324 712 -697 826 -79 24 -106 27 -265 29 -98 2 -182 6 -188 9 -5 3
-10 14 -10 23 0 43 -108 446 -170 634 l-68 207 67 43 c92 60 246 216 314 319
136 206 200 417 199 664 0 203 -47 388 -139 544 -52 87 -231 309 -328 406
-149 150 -307 249 -481 301 -79 24 -106 27 -239 28 -122 0 -166 -4 -238 -22
-121 -30 -272 -91 -392 -157 -54 -30 -102 -55 -105 -55 -3 0 -48 39 -100 87
-52 47 -139 122 -192 165 l-96 79 38 72 c46 86 92 216 116 324 26 118 24 360
-4 476 -60 244 -190 448 -374 587 -165 125 -521 268 -815 327 -65 13 -135 17
-268 17 -163 0 -189 -3 -279 -27 -305 -82 -569 -314 -737 -650 -35 -69 -43
-78 -62 -74 -12 3 -78 13 -147 22 -69 9 -134 18 -146 21 -20 3 -21 12 -27 126
-13 264 -106 489 -278 673 -101 108 -214 182 -376 248 -84 34 -128 44 -119 26
4 -8 2 -7 -6 2 -18 21 -106 33 -126 17 -12 -10 -14 -10 -9 -1 6 9 -7 11 -50 9
-32 -2 -58 -8 -58 -14 0 -6 -4 -14 -9 -19 -5 -5 -6 -3 -2 5 4 6 2 12 -4 12 -6
0 -8 5 -5 10 7 12 -162 11 -305 -1z m377 -39 c8 0 12 4 8 9 -3 5 -1 12 4 15 5
4 8 -2 7 -11 -4 -26 -36 -22 -54 7 -14 25 -14 25 3 3 10 -13 24 -23 32 -23z
m-111 -2979 c-4 -5 0 -12 6 -14 7 -3 1 -6 -14 -6 -20 -1 -26 3 -22 14 4 8 13
15 21 15 8 0 12 -4 9 -9z m78 2 c5 9 7 9 12 0 3 -7 10 -13 15 -13 6 0 7 6 3
13 -5 8 -2 8 9 -2 9 -7 17 -15 17 -17 0 -3 -98 2 -108 5 -2 1 0 6 3 11 4 7 12
7 25 0 13 -7 20 -6 24 3z m-58 -8065 c-10 -5 -23 -5 -33 1 -15 8 -11 10 15 9
26 -1 30 -3 18 -10z m71 6 c-3 -3 -12 -4 -19 -1 -8 3 -5 6 6 6 11 1 17 -2 13
-5z m-60 -2980 c-3 -3 -12 -4 -19 -1 -8 3 -5 6 6 6 11 1 17 -2 13 -5z m8 -33
c3 -5 1 -12 -5 -16 -5 -3 -10 1 -10 9 0 18 6 21 15 7z"/>
<path d="M14950 50910 c0 -5 7 -10 16 -10 8 0 12 5 9 10 -3 6 -10 10 -16 10
-5 0 -9 -4 -9 -10z"/>
<path d="M14845 50880 c6 -10 4 -12 -8 -7 -17 6 -67 -13 -67 -26 0 -4 9 -3 19
3 12 6 21 6 23 0 2 -5 14 -1 27 9 18 14 21 20 11 26 -9 6 -11 4 -5 -5z"/>
<path d="M14864 50852 c3 -6 2 -13 -4 -17 -5 -3 -10 -1 -10 5 0 6 -5 8 -10 5
-13 -8 -3 -25 15 -25 17 0 27 27 13 36 -6 4 -8 3 -4 -4z"/>
<path d="M15050 47880 c0 -5 7 -10 15 -10 8 0 15 5 15 10 0 6 -7 10 -15 10 -8
0 -15 -4 -15 -10z"/>
<path d="M14730 47847 c0 -7 9 -13 19 -13 15 0 17 3 9 13 -6 7 -14 13 -19 13
-5 0 -9 -6 -9 -13z"/>
<path d="M14777 47845 c3 -8 9 -12 14 -9 12 7 11 11 -5 17 -10 4 -13 1 -9 -8z"/>
<path d="M26985 47851 c-3 -5 -2 -12 3 -15 5 -3 9 1 9 9 0 17 -3 19 -12 6z"/>
<path d="M27018 47853 c7 -3 16 -2 19 1 4 3 -2 6 -13 5 -11 0 -14 -3 -6 -6z"/>
<path d="M27104 47835 c-4 -8 -9 -13 -13 -10 -4 2 -8 -1 -8 -8 0 -7 8 -13 17
-13 10 0 16 9 16 23 0 27 -4 29 -12 8z"/>
<path d="M27040 47836 c0 -2 8 -10 18 -17 15 -13 16 -12 3 4 -13 16 -21 21
-21 13z"/>
<path d="M27250 47773 c0 -5 4 -15 9 -22 6 -9 6 -22 1 -31 -6 -11 -5 -17 3
-17 8 0 13 15 13 39 0 25 -4 38 -13 38 -7 0 -13 -3 -13 -7z"/>
<path d="M27390 47680 c-8 -5 -12 -12 -9 -15 4 -3 12 1 19 10 14 17 11 19 -10
5z"/>
<path d="M27450 47656 c0 -2 7 -6 15 -10 8 -3 15 -1 15 4 0 6 -7 10 -15 10 -8
0 -15 -2 -15 -4z"/>
<path d="M11723 45228 c-121 -306 -200 -583 -253 -893 -47 -278 -55 -384 -54
-720 0 -342 15 -499 75 -799 54 -267 161 -604 259 -810 l38 -81 1 1728 c1 950
-1 1727 -2 1727 -2 0 -31 -69 -64 -152z"/>
<path d="M9085 42296 c17 -99 109 -438 170 -626 39 -117 63 -206 57 -208 -6
-2 -36 -21 -68 -43 -213 -150 -365 -357 -449 -615 -54 -166 -69 -377 -40 -550
59 -343 241 -577 580 -747 100 -50 230 -98 317 -117 l58 -13 3 -11191 c3
-10337 4 -11197 19 -11268 100 -467 320 -822 676 -1091 290 -218 609 -345 995
-397 43 -5 254 -10 470 -10 375 1 468 5 2160 104 l1767 104 43 39 c23 21 1108
992 2410 2157 1302 1165 2366 2120 2364 2123 -3 2 -1903 -89 -4223 -203 -4643
-228 -4277 -215 -4397 -151 -74 39 -149 121 -179 195 l-23 57 -3 8783 -2 8782
53 0 c77 0 177 12 177 20 0 4 -10 10 -22 14 -44 11 -204 123 -270 189 -125
125 -219 293 -268 477 -31 118 -38 339 -16 468 21 120 59 234 113 341 35 68
41 87 31 96 -7 6 -71 60 -143 120 -71 60 -210 189 -309 287 -98 98 -180 178
-182 178 -1 0 -39 -25 -83 -56 -257 -177 -555 -233 -846 -159 -180 45 -321
130 -458 275 -175 185 -263 402 -274 675 -11 276 64 525 225 748 67 93 193
217 282 277 36 24 66 44 68 46 2 1 -20 71 -48 155 -64 192 -112 359 -160 564
-21 90 -42 159 -48 158 -6 -1 -52 -5 -104 -9 -109 -8 -233 7 -349 40 l-80 23
6 -41z"/>
<path d="M14762 37052 c-10 -7 -8 -12 7 -26 16 -15 19 -15 24 -1 4 9 1 15 -9
15 -8 0 -12 5 -9 10 7 12 4 12 -13 2z"/>
<path d="M30378 27068 c10 -12 12 -182 10 -820 -3 -768 -2 -804 14 -776 10 15
21 27 25 26 18 -3 41 15 36 28 -3 9 0 14 8 12 9 -2 13 4 11 17 -3 16 -1 17 9
8 9 -9 17 -7 35 10 26 24 30 37 13 37 -5 0 -7 -5 -3 -12 5 -7 3 -8 -5 -3 -9 5
-10 10 -2 18 8 8 14 8 22 0 9 -9 33 7 95 64 46 42 81 80 77 86 -4 6 -1 7 7 2
10 -6 12 -4 7 8 -4 11 -2 14 9 10 10 -3 31 10 57 35 31 30 457 413 475 427 1
1 -51 48 -115 105 -65 56 -178 157 -252 224 -120 109 -151 131 -143 101 1 -5
-4 -2 -11 7 -8 10 -18 14 -22 10 -5 -4 -5 -1 -1 6 4 7 13 9 19 5 7 -4 5 4 -5
17 -9 14 -23 24 -32 24 -9 -1 -13 2 -11 7 3 4 -3 16 -14 26 -10 10 -81 79
-158 154 -126 124 -191 181 -155 137z m69 -67 c9 -14 6 -17 -16 -16 -21 0 -26
5 -26 26 -1 22 2 25 16 16 9 -5 21 -17 26 -26z m89 -88 c-3 -3 -16 -7 -29 -8
-20 -2 -23 2 -23 25 l0 29 28 -21 c16 -11 27 -23 24 -25z m67 -79 c-3 -8 -7
-14 -10 -14 -3 0 -3 7 1 15 3 8 1 15 -4 15 -6 0 -10 -7 -10 -17 0 -29 -15 -3
-16 28 l0 29 22 -21 c12 -12 20 -27 17 -35z m183 -1001 c-3 -20 -22 -28 -31
-14 -4 7 0 8 10 5 9 -4 15 -3 14 2 -2 13 0 24 5 24 2 0 3 -8 2 -17z m-186
-147 c0 -8 -5 -18 -12 -22 -8 -5 -9 -2 -4 11 5 15 4 16 -9 5 -14 -12 -22 0 -8
13 12 12 33 7 33 -7z m-14 -53 c-10 -11 -19 -7 -22 10 -2 15 0 16 12 6 8 -6
12 -14 10 -16z m-73 -32 c6 -24 0 -31 -20 -24 -12 5 -12 7 -1 14 11 7 10 11
-2 19 -13 8 -13 10 1 10 9 0 19 -9 22 -19z m-87 -83 c10 -13 15 -20 10 -16 -5
4 -15 3 -22 -2 -9 -8 -12 -4 -10 15 0 14 1 25 2 25 0 0 9 -10 20 -22z"/>
<path d="M30410 27016 c0 -2 8 -10 18 -17 15 -13 16 -12 3 4 -13 16 -21 21
-21 13z"/>
<path d="M30494 26928 c3 -15 26 -23 26 -8 0 6 -4 9 -9 6 -5 -4 -12 -1 -14 4
-3 6 -4 5 -3 -2z"/>
</g>
</svg>
